<svg width="195" height="24" viewBox="0 0 195 24" xmlns="http://www.w3.org/2000/svg"><title>fashion world</title><path d="M8.735 10.83v6.373H6.04v6.244H0V9.675c0-1.55.264-2.873.791-3.968.668-1.398 1.682-2.539 3.044-3.422C5.196 1.4 6.615.959 8.089.959l.646.017V7.35a4.445 4.445 0 0 0-.307-.017c-.764 0-1.353.255-1.768.765-.414.509-.621 1.235-.621 2.178v.553h2.696zm12.138 5.994c.13-.152.392-.552.392-.552v7.175c-.05.009-1.037.229-1.087.237-.436.07-.839.105-1.206.105-2.422 0-4.44-.803-6.055-2.407-1.615-1.604-2.422-3.615-2.422-6.032 0-2.353.816-4.347 2.446-5.984 1.631-1.637 3.614-2.455 5.95-2.455 2.605 0 4.659.766 6.16 2.3 1.502 1.534 2.253 3.63 2.253 6.285v7.951h-6.04v-7.512c0-.856-.206-1.54-.62-2.049-.415-.51-.972-.764-1.672-.764-.635 0-1.184.233-1.647.7a2.274 2.274 0 0 0-.694 1.658c0 .672.21 1.225.63 1.658.42.434.952.65 1.598.65a2.718 2.718 0 0 0 1.47-.422s.362-.33.544-.542zm20.042-9.36v6.406c-.85 0-1.434.16-1.752.48-.317.32-.52.95-.605 1.894-.28 3.133-1.486 5.344-3.617 6.634-1.13.672-2.734 1.008-4.812 1.008h-.84v-6.439h.275c.969 0 1.66-.203 2.075-.61.414-.406.654-1.119.718-2.138.086-1.658.24-2.824.46-3.496.221-.672.67-1.338 1.349-2 1.184-1.16 2.825-1.74 4.924-1.74h1.825zm8.009-6.212v6.78c1.022-.747 2.045-1.121 3.067-1.121 1.55 0 2.78.563 3.69 1.69.91 1.128 1.364 2.651 1.364 4.57v10.276h-6.039v-8.569c0-.694-.072-1.16-.218-1.398-.145-.239-.427-.358-.847-.358-.678 0-1.017.504-1.017 1.512v8.813h-6.04V1.252h6.04zm17.68 5.984v16.211h-6.039V7.236h6.039zM63.6 0c.818 0 1.525.29 2.123.87.597.58.896 1.265.896 2.057 0 .845-.283 1.54-.848 2.081-.565.542-1.289.813-2.171.813-.883 0-1.607-.27-2.172-.813-.565-.542-.848-1.236-.848-2.081 0-.792.299-1.477.896-2.057.598-.58 1.306-.87 2.124-.87zm14.192 6.894c2.282 0 4.239.827 5.87 2.48 1.63 1.653 2.446 3.634 2.446 5.943 0 2.342-.826 4.336-2.479 5.984-1.652 1.648-3.646 2.471-5.982 2.471-2.336 0-4.333-.826-5.99-2.48C70 19.64 69.17 17.649 69.17 15.318c0-2.374.829-4.371 2.487-5.992 1.657-1.62 3.703-2.43 6.135-2.43zm-.161 6c-.646 0-1.195.236-1.647.708-.452.471-.678 1.048-.678 1.731a2.4 2.4 0 0 0 .686 1.724c.457.477 1.004.715 1.639.715.646 0 1.197-.238 1.655-.715a2.4 2.4 0 0 0 .686-1.724c0-.683-.226-1.26-.678-1.731a2.215 2.215 0 0 0-1.663-.708zm25.35 10.553h-6.04v-9.154c0-.933-.381-1.399-1.145-1.399-.754 0-1.13.466-1.13 1.399v9.154h-6.04v-9.04c0-2.114.695-3.895 2.083-5.342 1.389-1.447 3.09-2.17 5.103-2.17 2.303 0 4.15.84 5.538 2.52 1.087 1.311 1.63 3.138 1.63 5.48v8.552zm11.787-15.984h6.038v8.732c0 .683.07 1.157.21 1.423.14.265.393.398.76.398.677 0 1.016-.607 1.016-1.82V7.462h6.04v8.732c0 .683.072 1.157.217 1.423.145.265.401.398.767.398.667 0 1.001-.607 1.001-1.82V7.462h6.039v9.984c0 1.821-.608 3.369-1.825 4.642-1.216 1.274-2.69 1.911-4.424 1.911-1.787 0-3.39-.759-4.811-2.276C124.225 23.24 122.643 24 121.05 24c-2.013 0-3.628-.737-4.844-2.211-.958-1.16-1.437-2.835-1.437-5.025v-9.3zm33.261-.569c2.282 0 4.239.827 5.87 2.48 1.63 1.653 2.446 3.634 2.446 5.943 0 2.342-.827 4.336-2.479 5.984-1.652 1.648-3.646 2.471-5.982 2.471-2.336 0-4.333-.826-5.99-2.48-1.658-1.652-2.487-3.644-2.487-5.975 0-2.374.829-4.371 2.487-5.992 1.657-1.62 3.702-2.43 6.135-2.43zm-.161 6c-.646 0-1.195.236-1.647.708-.452.471-.678 1.048-.678 1.731a2.4 2.4 0 0 0 .686 1.724c.457.477 1.004.715 1.639.715.646 0 1.197-.238 1.655-.715a2.4 2.4 0 0 0 .686-1.724c0-.683-.226-1.26-.678-1.731a2.215 2.215 0 0 0-1.663-.708zm19.827-5.82v6.503c-.42-.238-.801-.357-1.146-.357-1.098 0-1.647.845-1.647 2.536v7.691h-6.039v-8.862c0-2.341.635-4.208 1.906-5.601 1.27-1.393 2.965-2.09 5.086-2.09.473 0 1.087.06 1.84.18zm7.815-5.822v22.195h-6.038V1.252h6.038zm13.45 0H195v13.512c0 2.483-.646 4.504-1.938 6.065-.742.9-1.687 1.615-2.833 2.147a8.308 8.308 0 0 1-3.528.796c-2.4 0-4.424-.813-6.071-2.439-1.647-1.626-2.47-3.62-2.47-5.983 0-2.288.817-4.266 2.454-5.935 1.636-1.67 3.573-2.504 5.812-2.504.331 0 .82.028 1.468.084.026.002.33.076.601.17.235.08.443.182.466.184v7.188c-.066-.053-1.053-.93-1.12-.976-.428-.293-.857-.439-1.286-.439-.624 0-1.16.23-1.606.691a2.308 2.308 0 0 0-.67 1.667c0 .628.231 1.168.694 1.618.463.45 1.017.674 1.663.674 1.55 0 2.325-1.078 2.325-3.235V1.252z" fill="#292929" fill-rule="evenodd"/></svg>